<svg width="24" height="24" viewBox="0 0 24 24" fill="none" xmlns="http://www.w3.org/2000/svg">
  <!-- Shield outline -->
  <path d="M12 2L20 6V18L12 22L4 18V6L12 2Z" fill="#000000" stroke="#F2C94C" stroke-width="1"/>
  
  <!-- Anvil -->
  <path d="M8 14H16V16H8V14Z" fill="#F2C94C"/>
  <path d="M9 12H15V14H9V12Z" fill="#F2C94C"/>
  <path d="M10 10H14V12H10V10Z" fill="#F2C94C"/>
  <path d="M11 8H13V10H11V8Z" fill="#F2C94C"/>
  <!-- Anvil horn -->
  <path d="M16 12L18 14L16 16L14 14L16 12Z" fill="#F2C94C"/>
  
  <!-- Hammer -->
  <path d="M14 6H16V8H14V6Z" fill="#F2C94C"/>
  <path d="M12 8H16V10H12V8Z" fill="#F2C94C"/>
  <path d="M13 10H15V12H13V10Z" fill="#F2C94C"/>
  <!-- Hammer handle -->
  <path d="M10 10H12V12H10V10Z" fill="#F2C94C"/>
</svg>
